mtllib model_373364014129.mtl
usemtl Textured
v -1.0043041606886658 0.6700143472022956 0.1
v -1.0014347202295553 -0.6614060258249641 0.1
v -0.43328550932568155 -0.672883787661406 0.1
v -0.15781922525107617 -0.672883787661406 0.1
v 0.9956958393113347 -0.6757532281205165 0.1
v 0.9870875179340031 0.672883787661406 0.1
v -1.0043041606886658 0.6700143472022956 -0.1
v -1.0014347202295553 -0.6614060258249641 -0.1
v -0.43328550932568155 -0.672883787661406 -0.1
v -0.15781922525107617 -0.672883787661406 -0.1
v 0.9956958393113347 -0.6757532281205165 -0.1
v 0.9870875179340031 0.672883787661406 -0.1
v -1.0043041606886658 0.6700143472022956 0.1
v -1.0043041606886658 0.6700143472022956 -0.1
v -1.0014347202295553 -0.6614060258249641 -0.1
v -1.0014347202295553 -0.6614060258249641 0.1
v -1.0014347202295553 -0.6614060258249641 0.1
v -1.0014347202295553 -0.6614060258249641 -0.1
v -0.43328550932568155 -0.672883787661406 -0.1
v -0.43328550932568155 -0.672883787661406 0.1
v -0.43328550932568155 -0.672883787661406 0.1
v -0.43328550932568155 -0.672883787661406 -0.1
v -0.15781922525107617 -0.672883787661406 -0.1
v -0.15781922525107617 -0.672883787661406 0.1
v -0.15781922525107617 -0.672883787661406 0.1
v -0.15781922525107617 -0.672883787661406 -0.1
v 0.9956958393113347 -0.6757532281205165 -0.1
v 0.9956958393113347 -0.6757532281205165 0.1
v 0.9956958393113347 -0.6757532281205165 0.1
v 0.9956958393113347 -0.6757532281205165 -0.1
v 0.9870875179340031 0.672883787661406 -0.1
v 0.9870875179340031 0.672883787661406 0.1
v 0.9870875179340031 0.672883787661406 0.1
v 0.9870875179340031 0.672883787661406 -0.1
v -1.0043041606886658 0.6700143472022956 -0.1
v -1.0043041606886658 0.6700143472022956 0.1
vt -0.002152080344332896 0.8350071736011477
vt -0.0007173601147776321 0.16929698708751795
vt 0.2833572453371592 0.163558106169297
vt -0.002152080344332896 0.8350071736011477
vt 0.2833572453371592 0.163558106169297
vt 0.4210903873744619 0.163558106169297
vt -0.002152080344332896 0.8350071736011477
vt 0.4210903873744619 0.163558106169297
vt 0.9978479196556673 0.16212338593974174
vt -0.002152080344332896 0.8350071736011477
vt 0.9978479196556673 0.16212338593974174
vt 0.9935437589670015 0.836441893830703
vt 0.2833572453371592 0.163558106169297
vt -0.0007173601147776321 0.16929698708751795
vt -0.002152080344332896 0.8350071736011477
vt 0.4210903873744619 0.163558106169297
vt 0.2833572453371592 0.163558106169297
vt -0.002152080344332896 0.8350071736011477
vt 0.9978479196556673 0.16212338593974174
vt 0.4210903873744619 0.163558106169297
vt -0.002152080344332896 0.8350071736011477
vt 0.9935437589670015 0.836441893830703
vt 0.9978479196556673 0.16212338593974174
vt -0.002152080344332896 0.8350071736011477
vt -0.002152080344332896 0.8350071736011477
vt -0.002152080344332896 0.8350071736011477
vt -0.0007173601147776321 0.16929698708751795
vt -0.0007173601147776321 0.16929698708751795
vt -0.0007173601147776321 0.16929698708751795
vt -0.002152080344332896 0.8350071736011477
vt -0.0007173601147776321 0.16929698708751795
vt -0.0007173601147776321 0.16929698708751795
vt 0.2833572453371592 0.163558106169297
vt 0.2833572453371592 0.163558106169297
vt 0.2833572453371592 0.163558106169297
vt -0.0007173601147776321 0.16929698708751795
vt 0.2833572453371592 0.163558106169297
vt 0.2833572453371592 0.163558106169297
vt 0.4210903873744619 0.163558106169297
vt 0.4210903873744619 0.163558106169297
vt 0.4210903873744619 0.163558106169297
vt 0.2833572453371592 0.163558106169297
vt 0.4210903873744619 0.163558106169297
vt 0.4210903873744619 0.163558106169297
vt 0.9978479196556673 0.16212338593974174
vt 0.9978479196556673 0.16212338593974174
vt 0.9978479196556673 0.16212338593974174
vt 0.4210903873744619 0.163558106169297
vt 0.9978479196556673 0.16212338593974174
vt 0.9978479196556673 0.16212338593974174
vt 0.9935437589670015 0.836441893830703
vt 0.9935437589670015 0.836441893830703
vt 0.9935437589670015 0.836441893830703
vt 0.9978479196556673 0.16212338593974174
vt 0.9935437589670015 0.836441893830703
vt 0.9935437589670015 0.836441893830703
vt -0.002152080344332896 0.8350071736011477
vt -0.002152080344332896 0.8350071736011477
vt -0.002152080344332896 0.8350071736011477
vt 0.9935437589670015 0.836441893830703
vn 0 0 1
vn 0 0 1
vn 0 0 1
vn 0 0 1
vn 0 0 1
vn 0 0 1
vn 0 0 -1
vn 0 0 -1
vn 0 0 -1
vn 0 0 -1
vn 0 0 -1
vn 0 0 -1
vn -0.9999976776240236 -0.0021551674086725055 0
vn -0.9999976776240236 -0.0021551674086725055 0
vn -0.9999976776240236 -0.0021551674086725055 0
vn -0.9999976776240236 -0.0021551674086725055 0
vn -0.02019789902282554 -0.9997960016298644 0
vn -0.02019789902282554 -0.9997960016298644 0
vn -0.02019789902282554 -0.9997960016298644 0
vn -0.02019789902282554 -0.9997960016298644 0
vn 0 -1 0
vn 0 -1 0
vn 0 -1 0
vn 0 -1 0
vn -0.002487554492615809 -0.9999969060315368 0
vn -0.002487554492615809 -0.9999969060315368 0
vn -0.002487554492615809 -0.9999969060315368 0
vn -0.002487554492615809 -0.9999969060315368 0
vn 0.9999796294137664 0.006382848698385866 0
vn 0.9999796294137664 0.006382848698385866 0
vn 0.9999796294137664 0.006382848698385866 0
vn 0.9999796294137664 0.006382848698385866 0
vn -0.0014409206943418122 0.9999989618732374 0
vn -0.0014409206943418122 0.9999989618732374 0
vn -0.0014409206943418122 0.9999989618732374 0
vn -0.0014409206943418122 0.9999989618732374 0
f 1/1/1 2/2/2 3/3/3
f 1/4/1 3/5/3 4/6/4
f 1/7/1 4/8/4 5/9/5
f 1/10/1 5/11/5 6/12/6
f 9/13/9 8/14/8 7/15/7
f 10/16/10 9/17/9 7/18/7
f 11/19/11 10/20/10 7/21/7
f 12/22/12 11/23/11 7/24/7
f 13/25/13 14/26/14 15/27/15
f 15/28/15 16/29/16 13/30/13
f 17/31/17 18/32/18 19/33/19
f 19/34/19 20/35/20 17/36/17
f 21/37/21 22/38/22 23/39/23
f 23/40/23 24/41/24 21/42/21
f 25/43/25 26/44/26 27/45/27
f 27/46/27 28/47/28 25/48/25
f 29/49/29 30/50/30 31/51/31
f 31/52/31 32/53/32 29/54/29
f 33/55/33 34/56/34 35/57/35
f 35/58/35 36/59/36 33/60/33
